<svg viewBox="0 0 128 40" xmlns="http://www.w3.org/2000/svg">
  <path d="M7.86 40h-.94A13.77 13.77 0 0 1 5 39.82a6.22 6.22 0 0 1-1.72-.58 5.41 5.41 0 0 1-1.45-1.06 5.52 5.52 0 0 1-1.08-1.46A6 6 0 0 1 .19 35 12.27 12.27 0 0 1 0 33V7a12.08 12.08 0 0 1 .19-2 6 6 0 0 1 .56-1.72A6.09 6.09 0 0 1 1.8 1.82 5.91 5.91 0 0 1 3.26.75 6 6 0 0 1 5 .18 14.57 14.57 0 0 1 6.92 0h114.16a14.44 14.44 0 0 1 1.92.18 6 6 0 0 1 1.74.58 5.53 5.53 0 0 1 1.44 1.06 5.57 5.57 0 0 1 1.06 1.47 6.09 6.09 0 0 1 .57 1.71 13.48 13.48 0 0 1 .19 2v26.07a13.21 13.21 0 0 1-.18 1.94 6.12 6.12 0 0 1-.56 1.74 5.73 5.73 0 0 1-1 1.45 5.44 5.44 0 0 1-1.46 1.07 5.88 5.88 0 0 1-1.73.58 13.52 13.52 0 0 1-1.94.17H7.86z"/>
  <path d="M50.22 16.34h-4.3l-1 3.05h-1.86l4.08-11.3H49l4.08 11.3h-1.82zm-3.86-1.41h3.42l-1.69-5zm15.57.34c0 2.56-1.37 4.21-3.44 4.21A2.79 2.79 0 0 1 55.9 18v4.08h-1.73v-11h1.63v1.37A2.94 2.94 0 0 1 58.43 11c2.12.07 3.5 1.72 3.5 4.27zm-1.74 0c0-1.67-.86-2.76-2.18-2.76s-2.16 1.12-2.16 2.76.87 2.78 2.16 2.78 2.18-1.05 2.18-2.78zm10.81 0c0 2.56-1.37 4.21-3.44 4.21A2.8 2.8 0 0 1 65 18v4.08h-1.76v-11h1.63v1.37A2.92 2.92 0 0 1 67.49 11c2.13.07 3.51 1.72 3.51 4.27zm-1.74 0c0-1.67-.86-2.76-2.18-2.76s-2.16 1.12-2.16 2.76.87 2.78 2.16 2.78 2.18-1.05 2.18-2.78zm7.74.97c.13 1.12 1.22 1.86 2.71 1.86s2.45-.74 2.45-1.75-.62-1.4-2.08-1.76l-1.47-.35c-2.08-.5-3-1.47-3-3.05 0-1.95 1.7-3.29 4.11-3.29s4 1.34 4.09 3.29h-1.76c-.1-1.13-1-1.81-2.4-1.81s-2.3.69-2.3 1.69c0 .8.6 1.27 2.06 1.63l1.24.31c2.32.55 3.29 1.48 3.29 3.13 0 2.12-1.69 3.44-4.37 3.44-2.51 0-4.2-1.29-4.31-3.34zM87.59 9.2v2h1.57v1.34h-1.57V17c0 .71.31 1 1 1a4.32 4.32 0 0 0 .56 0v1.33a4.48 4.48 0 0 1-.94.08c-1.67 0-2.32-.63-2.32-2.22v-4.7h-1.2v-1.34h1.2v-2zm2.47 6.07c0-2.59 1.53-4.22 3.91-4.22s3.91 1.63 3.91 4.22S96.37 19.5 94 19.5s-3.94-1.63-3.94-4.23zm6.1 0c0-1.78-.82-2.83-2.19-2.83s-2.19 1.06-2.19 2.83.82 2.83 2.22 2.83 2.16-1.04 2.16-2.83zm3.12-4.12h1.61v1.4a2 2 0 0 1 2-1.48 2.71 2.71 0 0 1 .58.06v1.58a2.51 2.51 0 0 0-.76-.1A1.7 1.7 0 0 0 101 14.5v4.89h-1.72zM111.29 17c-.23 1.5-1.68 2.53-3.55 2.53-2.4 0-3.88-1.61-3.88-4.19s1.49-4.26 3.81-4.26 3.71 1.57 3.71 4.07v.58h-5.82v.1a2.15 2.15 0 0 0 2.22 2.33 1.85 1.85 0 0 0 1.9-1.16zm-5.72-2.46h4.12a2 2 0 0 0-2-2.09 2.09 2.09 0 0 0-2.12 2.06zM45.19 31.5l.07-.87a3.34 3.34 0 0 0 1 .16c.31 0 .43 0 .59-.24a4.85 4.85 0 0 0 .46-2.46c0-.91-.28-1.17-1-1.17h-.54a14.54 14.54 0 0 1-1.88 4.39l-.83-.45A11.74 11.74 0 0 0 44.82 27a12.61 12.61 0 0 0-1.63.28l-.19-.86c.61-.11 1.34-.21 2-.27a18.71 18.71 0 0 0 .31-2l1 .11c-.09.61-.2 1.22-.34 1.82h.39c1.28 0 1.89.63 1.89 2a6.2 6.2 0 0 1-.58 3 1.23 1.23 0 0 1-1.21.64 5.54 5.54 0 0 1-1.27-.22zm3.23-5.4l.73-.49a5.65 5.65 0 0 1 1.71 3.71l-1 .15a4.7 4.7 0 0 0-1.44-3.37zm5.76 5.54l-.2-.9h.78c2 0 2.73-.56 2.73-1.39 0-.66-.43-1-1.39-1a4.29 4.29 0 0 0-2.74 1.34l-.77-.34a5.88 5.88 0 0 1 .85-3.76l.89.29a3.93 3.93 0 0 0-.76 2.61 5.12 5.12 0 0 1 2.73-.93c1.34 0 2.18.69 2.18 1.81 0 1.42-1.13 2.29-3.82 2.29zM53.25 25l.25-.88a27.39 27.39 0 0 1 3.93.9l-.24.87a22.49 22.49 0 0 0-3.94-.89zm8.13 6a6.32 6.32 0 0 0 2.69-1.74A11.35 11.35 0 0 0 62.2 28l.55-.69a12.17 12.17 0 0 1 1.9 1.2 6.38 6.38 0 0 0 1-2.32h-2.57a10.2 10.2 0 0 1-2.19 2.52l-.73-.71A9.6 9.6 0 0 0 63 24.2l1 .23c-.11.28-.22.57-.35.84H66l.71.33A7.58 7.58 0 0 1 62 31.73zm4.22-7l.56-.27a6 6 0 0 1 .71 1.23l-.63.29A5.47 5.47 0 0 0 65.6 24zm1.25-.1l.57-.27a6.74 6.74 0 0 1 .73 1.26l-.63.27a5.49 5.49 0 0 0-.67-1.3zm4.38 7.79l-.51-.81a4.19 4.19 0 0 0 3.53-4.42H70v2h-1v-2.85h2.51v-1.47h1v1.47h1.88l.92.26c-.08 2.85-1.03 5.02-4.08 5.82zm6.07-6.01l.56-.82a12.43 12.43 0 0 1 2.46 1.49l-.64.87a11.35 11.35 0 0 0-2.38-1.54zm.19 4.94a7.76 7.76 0 0 0 5.77-4.17l.66.75a8.46 8.46 0 0 1-6 4.35zm14.64.48h-6.3v-6h6.3zm-5.31-5v4.12h4.31v-4.16zm14.33 2.33h-7.08v-1h7.08zm2.41-4.26h1v2.56a32.31 32.31 0 0 1 3.82 1.92l-.56.88a24.18 24.18 0 0 0-3.26-1.75v3.86h-1zm2.35.54l.59-.28a6.55 6.55 0 0 1 .71 1.36l-.65.29a5.93 5.93 0 0 0-.65-1.37zm1.14-.43l.6-.28a6.49 6.49 0 0 1 .75 1.36l-.65.29a6.55 6.55 0 0 0-.7-1.37zm-78.13-3.96a5.26 5.26 0 0 1 2.51-4.41 5.39 5.39 0 0 0-4.24-2.3c-1.79-.19-3.52 1.07-4.43 1.07s-2.33-1-3.84-1a5.68 5.68 0 0 0-4.76 2.9c-2.05 3.56-.52 8.8 1.45 11.68 1 1.4 2.14 3 3.65 2.92s2-.94 3.8-.94 2.28.94 3.82.91 2.58-1.42 3.53-2.84A11.86 11.86 0 0 0 32 25a5.08 5.08 0 0 1-3.08-4.68zM26 11.72A5.19 5.19 0 0 0 27.2 8a5.29 5.29 0 0 0-3.41 1.76 4.94 4.94 0 0 0-1.21 3.58A4.37 4.37 0 0 0 26 11.72z" fill="#fff"/>
</svg>
