<svg viewBox="0 0 128 40" xmlns="http://www.w3.org/2000/svg">
  <linearGradient id="a" gradientTransform="matrix(1 0 0 -1 0 814)" gradientUnits="userSpaceOnUse" x1="22.86" x2="6.08" y1="805.29" y2="788.51">
    <stop offset="0" stop-color="#00a0ff"/>
    <stop offset=".01" stop-color="#00a1ff"/>
    <stop offset=".26" stop-color="#00beff"/>
    <stop offset=".51" stop-color="#00d2ff"/>
    <stop offset=".76" stop-color="#00dfff"/>
    <stop offset="1" stop-color="#00e3ff"/>
  </linearGradient>
  <linearGradient id="b" gradientTransform="matrix(1 0 0 -1 0 814)" gradientUnits="userSpaceOnUse" x1="34.89" x2="10.7" y1="794" y2="794">
    <stop offset="0" stop-color="#ffe000"/>
    <stop offset=".41" stop-color="#ffbd00"/>
    <stop offset=".78" stop-color="orange"/>
    <stop offset="1" stop-color="#ff9c00"/>
  </linearGradient>
  <linearGradient id="c" gradientTransform="matrix(1 0 0 -1 0 814)" gradientUnits="userSpaceOnUse" x1="25.89" x2="3.13" y1="791.7" y2="768.95">
    <stop offset="0" stop-color="#ff3a44"/>
    <stop offset="1" stop-color="#c31162"/>
  </linearGradient>
  <linearGradient id="d" gradientTransform="matrix(1 0 0 -1 0 814)" gradientUnits="userSpaceOnUse" x1="8.36" x2="18.52" y1="813.82" y2="803.66">
    <stop offset="0" stop-color="#32a071"/>
    <stop offset=".07" stop-color="#2da771"/>
    <stop offset=".48" stop-color="#15cf74"/>
    <stop offset=".8" stop-color="#06e775"/>
    <stop offset="1" stop-color="#00f076"/>
  </linearGradient>
  <rect height="40" rx="5" width="128"/>
  <path d="M11.49 7.54a2 2 0 0 0-.49 1.4v22.12a2 2 0 0 0 .46 1.4l.08.08L24 20.15v-.3L11.57 7.47z" fill="url(#a)"/>
  <path d="M28.09 24.28L24 20.15v-.3l4.13-4.13.09.06 4.89 2.78c1.4.79 1.4 2.09 0 2.89l-4.89 2.78z" fill="url(#b)"/>
  <path d="M28.18 24.23L24 20 11.49 32.46a1.64 1.64 0 0 0 2.08.07z" fill="url(#c)"/>
  <path d="M28.18 15.78l-14.61-8.3a1.62 1.62 0 0 0-2.08.06L24 20z" fill="url(#d)"/>
  <path d="M28.09 24.13l-14.52 8.25a1.66 1.66 0 0 1-2 0l-.08.07.08.08a1.66 1.66 0 0 0 2 0l14.61-8.3z" opacity=".2"/>
  <path d="M11.49 32.32a2 2 0 0 1-.49-1.41v.15a2 2 0 0 0 .46 1.4l.08-.07zM33.07 21.3l-5 2.83.09.1 4.89-2.79a1.75 1.75 0 0 0 1-1.44 1.86 1.86 0 0 1-.98 1.3z" opacity=".12"/>
  <g fill="#fff">
    <path d="M13.57 7.62l19.5 11.08a1.86 1.86 0 0 1 1 1.3 1.75 1.75 0 0 0-1-1.44L13.57 7.48C12.18 6.68 11 7.34 11 8.94v.15c0-1.6 1.18-2.26 2.57-1.47z" opacity=".25"/>
    <path d="M65.78 11.92a3.72 3.72 0 1 0 3.74 3.71 3.66 3.66 0 0 0-3.74-3.71zm0 6a2.15 2.15 0 0 1-2.09-2.26 2.1 2.1 0 1 1 4.19 0 2.15 2.15 0 0 1-2.1 2.23zm-8.14-6a3.72 3.72 0 1 0 3.73 3.71 3.66 3.66 0 0 0-3.73-3.71zm0 6a2.16 2.16 0 0 1-2.1-2.26 2.1 2.1 0 1 1 4.2 0 2.15 2.15 0 0 1-2.1 2.23zM48 13.06v1.57h3.77a3.28 3.28 0 0 1-.86 2A3.84 3.84 0 0 1 48 17.77a4.2 4.2 0 0 1 0-8.39 4 4 0 0 1 2.84 1.13l1.12-1.12A5.53 5.53 0 0 0 48 7.8a5.86 5.86 0 0 0-5.86 5.78A5.86 5.86 0 0 0 48 19.35a5.28 5.28 0 0 0 4-1.62A5.22 5.22 0 0 0 53.35 14a5.71 5.71 0 0 0-.08-1zm39.6 1.22a3.45 3.45 0 0 0-3.18-2.36 3.53 3.53 0 0 0-3.51 3.71 3.64 3.64 0 0 0 3.69 3.72 3.69 3.69 0 0 0 3.1-1.65l-1.27-.84a2.12 2.12 0 0 1-1.83 1 1.89 1.89 0 0 1-1.8-1.13l5-2.06zm-5.07 1.24a2 2 0 0 1 2-2.17 1.46 1.46 0 0 1 1.38.79zm-4 3.61h1.64V8.2h-1.72zm-2.67-6.38h-.06a2.57 2.57 0 0 0-2-.83 3.72 3.72 0 0 0 0 7.43 2.54 2.54 0 0 0 2-.84h.06V19a1.9 1.9 0 0 1-2 2.18 2 2 0 0 1-1.87-1.32l-1.42.59a3.52 3.52 0 0 0 3.29 2.2c1.92 0 3.53-1.13 3.53-3.87v-6.64h-1.61zm-1.96 5.14a2.14 2.14 0 0 1-2.07-2.24 2.16 2.16 0 0 1 2.07-2.27 2.1 2.1 0 0 1 2 2.27 2.08 2.08 0 0 1-2 2.24zM95.21 8.2h-3.9v10.93h1.63V15h2.27a3.47 3.47 0 0 0 3.59-3.4 3.47 3.47 0 0 0-3.59-3.4zm.05 5.26h-2.32V9.72h2.32a1.87 1.87 0 1 1 0 3.74zm10.08-1.56a3.06 3.06 0 0 0-2.91 1.67l1.44.6a1.77 1.77 0 0 1 3.21.61v.11a3.62 3.62 0 0 0-1.7-.42c-1.56 0-3.15.86-3.15 2.46a2.52 2.52 0 0 0 2.71 2.4 2.29 2.29 0 0 0 2.06-1.07h.06v.85h1.57v-4.19c.02-1.92-1.42-3.02-3.29-3.02zm-.2 6c-.53 0-1.28-.26-1.28-.92 0-.85.93-1.17 1.73-1.17a2.92 2.92 0 0 1 1.49.36 2 2 0 0 1-1.94 1.71zm9.25-5.75l-1.87 4.74h-.06l-1.94-4.74h-1.75l2.91 6.63-1.68 3.66h1.7l4.48-10.31zm-14.69 7h1.63V8.2H99.7zM48 27.39v-.06l-.65.28.07.1A7.8 7.8 0 0 1 48.1 29v.09l.64-.3v-.09a10.36 10.36 0 0 0-.74-1.31z"/>
    <path d="M45.49 29.32a3 3 0 0 1 2-2.72 7.33 7.33 0 0 1 1.72-.14h.1v-.92h-.1c-.8 0-1.61.09-2.41.15l-3.21.3-.7.06c-.19 0-.47 0-.79.05H42l.1 1h.11c.76-.16 2.48-.34 3.5-.45h.28a3.71 3.71 0 0 0-1.38 2.87c0 2 1.82 3 3.62 3h.08l.33-1h-.14c-.93.01-3.01-.28-3.01-2.2z"/>
    <path d="M49 27v-.06l-.63.29.07.1a7.29 7.29 0 0 1 .76 1.24v.08l.65-.3-.05-.09A12.14 12.14 0 0 0 49 27zm6 .86h3.19V27H55v-1.24a16.86 16.86 0 0 0 2.74-.53h.16l-.66-.7h-.06a31.1 31.1 0 0 1-6.06.75H51v.13a2.67 2.67 0 0 1 .16.57v.09h.09c.72 0 1.78-.09 2.83-.2V27h-3.1v.83h3.1v1.26h-3.7V30h3.7v1.89c0 .12 0 .15-.19.15h-1.84l.1.15a3.75 3.75 0 0 1 .28.65v.07H53a5.84 5.84 0 0 0 1.5-.12c.39-.13.54-.38.54-.88V30h3.69v-.86H55zM67 31a9.53 9.53 0 0 1-2.18.23c-1.39 0-1.39-.53-1.39-.7a3.1 3.1 0 0 1 .11-.79v-.12l-.85-.08v.09a4.93 4.93 0 0 0-.15 1.07c0 .65.39 1.43 2.26 1.43a12.12 12.12 0 0 0 2.2-.2h.08V31zm-5.77-1.71l-.35.89v-.79a19.85 19.85 0 0 1 .43-3.4 5.69 5.69 0 0 1 .16-.59v-.12l-1-.08v.11c0 .15 0 .34-.05.52v.09c0 .13 0 .28-.07.44a21.19 21.19 0 0 0-.35 3.15 11.1 11.1 0 0 0 .33 2.89v.08l.83-.06v-.41a1.8 1.8 0 0 1 0-.37 19.76 19.76 0 0 1 .62-2v-.07l-.55-.41zm1.77-2.4c.49.05 1.17.08 1.85.08s1.35 0 1.83-.08h.09v-.94h-.12a16.32 16.32 0 0 1-3.63 0h-.12v.94zm9.83-1.75V25h-3.07v.86H72c0 .31 0 .63.1.93h-.36v.09c-.57 2.64-1.72 4.32-3.59 5.3l-.16.08.15.09a3.69 3.69 0 0 1 .58.52h.13a7.85 7.85 0 0 0 3.53-4.73 7.79 7.79 0 0 0 3.53 4.73h.08v-.07a3 3 0 0 1 .52-.54l.13-.09-.14-.07c-.9-.51-3.67-2.16-3.67-6.96zM85 30.56a1.85 1.85 0 0 1-1.27.71c-.31 0-.36-.28-.36-.44a14.16 14.16 0 0 1 .17-1.66 14.26 14.26 0 0 0 .16-1.68 1.21 1.21 0 0 0-1.36-1.29 4.81 4.81 0 0 0-2.6 1.35 1.79 1.79 0 0 1 0-.23l.38-.6v-.06l-.32-.39c.06-.58.13-1 .17-1.22v-.12h-1.1L79 25a2.54 2.54 0 0 1 0 .55v.85c-.43.06-.91.11-1.18.13a5.32 5.32 0 0 1-.57 0h-.12l.1 1h.1l.61-.08 1-.13v.71c-.47.73-1.48 2.09-2 2.68v.06l.58.8.08-.12c.35-.48.83-1.18 1.26-1.81v2.91h1v-.11c0-.16 0-.39-.05-.54v-3.14a4.83 4.83 0 0 1 2.52-1.66c.43 0 .61.2.61.63a12.56 12.56 0 0 1-.15 1.54A13.58 13.58 0 0 0 82.5 31c0 .77.42 1.24 1.09 1.24a2.38 2.38 0 0 0 1.71-.78l-.16-1zm5.44-.82c0-.69-.09-1.54-.09-2.11.73 0 1.81-.07 2.58-.14H93v-.89h-.11c-.75.1-1.77.15-2.53.17V26a8.51 8.51 0 0 1 .07-.87v-.12h-1.09v.12a6.86 6.86 0 0 1 .07.87v1.62s0 1.06.07 2a4.82 4.82 0 0 0-.65 0c-1.73 0-2.35.81-2.35 1.57 0 1 .8 1.51 2.24 1.51 1.09 0 1.74-.54 1.74-1.46v-.45a6 6 0 0 1 2.14 1.4l.09.08.54-.84-.06-.06a7.39 7.39 0 0 0-2.73-1.63zm-.89 1.16c0 .56-.28.82-.87.82s-1.25-.09-1.25-.67.51-.7 1.34-.7a3.8 3.8 0 0 1 .77.07v.26a1.7 1.7 0 0 1 .01.22zm8.99-3.85a10.38 10.38 0 0 0-2.37.36l-.31.08c-.18 0-.52.1-.8.13h-.12l.29 1.05.23-.09a6.17 6.17 0 0 1 .61-.21l.21-.06a7.43 7.43 0 0 1 2.19-.39c.85 0 1.42.47 1.42 1.18 0 1.79-2 2.41-3.6 2.62h-.16l.54.88h.07c2.62-.39 4.12-1.66 4.12-3.48a2.07 2.07 0 0 0-2.32-2.07zm1.39-.75h.07l.14-.89h-.11a23.62 23.62 0 0 1-3.75-.41h-.11l-.15.89h.1c1.04.17 2.88.35 3.81.41z"/>
  </g>
</svg>
